<svg id="Camada_1" data-name="Camada 1" xmlns="http://www.w3.org/2000/svg" viewBox="0 0 512 512"><defs><style>.cls-1{fill:#f7f7f7;}</style></defs><title>Icon W</title><path class="cls-1" d="M256,175.9l77.26,135.94-8.84-4.7a145.81,145.81,0,0,0-136.84,0l-8.84,4.7L256,175.9M234.27,66.26,30,425.67l11.6,11.6a37.71,37.71,0,0,0,44.33,6.63l135.93-72.25a72.77,72.77,0,0,1,68.26,0L426.06,443.9a37.71,37.71,0,0,0,44.33-6.63l11.6-11.6L277.73,66.26Z"/><path class="cls-1" d="M340.2,79.87A13.85,13.85,0,1,1,326.4,66.4,13.54,13.54,0,0,1,340.2,79.87Zm-24.24,0a10.45,10.45,0,0,0,10.52,10.77c5.92,0,10.26-4.77,10.26-10.68S332.4,69.11,326.4,69.11A10.48,10.48,0,0,0,316,79.87Zm8.3,7.07h-3.12V73.47a27,27,0,0,1,5.18-.41A8.44,8.44,0,0,1,331,74a3.74,3.74,0,0,1,1.31,3,3.45,3.45,0,0,1-2.79,3.12v.17c1.31.49,2.05,1.47,2.46,3.28a10.49,10.49,0,0,0,1,3.37H329.6a11.75,11.75,0,0,1-1.07-3.29c-.24-1.47-1.06-2.13-2.79-2.13h-1.48Zm.08-7.64h1.48c1.73,0,3.13-.58,3.13-2,0-1.23-.91-2.06-2.88-2.06a7.59,7.59,0,0,0-1.73.17Z"/></svg>