<svg id="Camada_1" data-name="Camada 1" xmlns="http://www.w3.org/2000/svg" viewBox="0 0 512 512"><defs><style>.cls-1{fill:#1e1e30;}</style></defs><title>Azuli dark</title><path class="cls-1" d="M263.5,143.77l40.18,70.7-4.6-2.44a75.82,75.82,0,0,0-71.17,0l-4.6,2.44,40.19-70.7m-11.3-57L146,273.68l6,6a19.6,19.6,0,0,0,23,3.45l70.7-37.58a37.87,37.87,0,0,1,35.51,0L352,283.16A19.6,19.6,0,0,0,375,279.71l6-6L274.8,86.74Z"/><path class="cls-1" d="M164.66,423.6H136.52l-9-22.15H109.77c-25.75,0-47.71,2.59-55.5,22.15H26.13L82.82,283.87H108Zm-46.91-46.11L95.4,322,68.45,388.67c11.77-8.59,25.55-11.18,41.32-11.18Z"/><path class="cls-1" d="M264,399.85V423.6H172.53V406.44l53.29-66.88H174.53V315.81H263v17l-53.3,67.08Z"/><path class="cls-1" d="M385.77,315.81V423.6H360.82V401.45c-8.39,15.76-22.56,25.14-37.93,25.14-21.76,0-41.52-15-41.52-44.51V315.81h25.15v61.88c0,17.37,12,26.54,25.16,26.54,14.76,0,29.14-12,29.14-33.13V315.81Z"/><path class="cls-1" d="M410,423.6V272.29h25.15V423.6Z"/><path class="cls-1" d="M457.12,286.87a14.38,14.38,0,1,1,14.38,14.36A14.49,14.49,0,0,1,457.12,286.87Zm1.8,136.73V315.81h25.15V423.6Z"/><path class="cls-1" d="M313.42,94.89a9.74,9.74,0,1,1-9.71-9.48A9.52,9.52,0,0,1,313.42,94.89Zm-17.05,0a7.34,7.34,0,0,0,7.4,7.57A7.25,7.25,0,0,0,311,95a7.32,7.32,0,1,0-14.62-.06Zm5.84,5H300V90.38a18.58,18.58,0,0,1,3.64-.29,6,6,0,0,1,3.3.69,2.67,2.67,0,0,1,.92,2.08,2.44,2.44,0,0,1-2,2.2v.12a2.79,2.79,0,0,1,1.73,2.31,7.06,7.06,0,0,0,.7,2.37H306a8.47,8.47,0,0,1-.75-2.31c-.17-1-.75-1.51-2-1.51h-1Zm.05-5.38h1c1.22,0,2.2-.4,2.2-1.38s-.63-1.45-2-1.45a5.12,5.12,0,0,0-1.22.12Z"/></svg>